<?xml version="1.0" encoding="UTF-8"?>
<!DOCTYPE svg PUBLIC "-//W3C//DTD SVG 1.1//EN" "http://www.w3.org/Graphics/SVG/1.1/DTD/svg11.dtd">
<svg xmlns="http://www.w3.org/2000/svg" version="1.1" width="2000px" height="2000px" style="shape-rendering:geometricPrecision; text-rendering:geometricPrecision; image-rendering:optimizeQuality; fill-rule:evenodd; clip-rule:evenodd" xmlns:xlink="http://www.w3.org/1999/xlink">
<g><path style="opacity:1" fill="#fefefe" d="M 99.5,-0.5 C 700.167,-0.5 1300.83,-0.5 1901.5,-0.5C 1943.08,5.2437 1972.58,27.2437 1990,65.5C 1994.28,76.3089 1997.45,87.3089 1999.5,98.5C 1999.5,699.5 1999.5,1300.5 1999.5,1901.5C 1993.33,1943.84 1970.66,1973.67 1931.5,1991C 1921.25,1994.64 1910.92,1997.48 1900.5,1999.5C 1299.5,1999.5 698.5,1999.5 97.5,1999.5C 55.8947,1993.73 26.3947,1971.73 9,1933.5C 4.71892,1922.69 1.55225,1911.69 -0.5,1900.5C -0.5,1299.5 -0.5,698.5 -0.5,97.5C 9.83633,41.6169 43.1697,8.95026 99.5,-0.5 Z"/></g>
<g><path style="opacity:1" fill="#008d5c" d="M 104.5,46.5 C 701.833,46.3333 1299.17,46.5 1896.5,47C 1928.5,53.0013 1947,72.168 1952,104.5C 1952.67,700.833 1952.67,1297.17 1952,1893.5C 1947.14,1928.03 1927.3,1947.53 1892.5,1952C 1295.83,1952.67 699.167,1952.67 102.5,1952C 69.5944,1945.76 51.0944,1925.92 47,1892.5C 46.3333,1295.5 46.3333,698.5 47,101.5C 50.8292,78.0133 63.6625,61.5133 85.5,52C 91.8169,49.6753 98.1502,47.842 104.5,46.5 Z"/></g>
<g><path style="opacity:1" fill="#fefefe" d="M 635.5,257.5 C 635.333,359.834 635.5,462.167 636,564.5C 636.717,563.956 637.217,563.289 637.5,562.5C 705.469,432.712 808.135,341.879 945.5,290C 1097.09,238.233 1244.76,247.567 1388.5,318C 1531.66,394.512 1626.49,510.679 1673,666.5C 1716.05,835.226 1689.05,991.559 1592,1135.5C 1489.97,1275.64 1352.14,1354.47 1178.5,1372C 999.18,1382.05 847.68,1322.55 724,1193.5C 689.73,1155.64 660.897,1113.97 637.5,1068.5C 637.217,1067.71 636.717,1067.04 636,1066.5C 635.5,1168.83 635.333,1271.17 635.5,1373.5C 610.5,1373.5 585.5,1373.5 560.5,1373.5C 560.023,1029.15 560.523,684.812 562,340.5C 538.049,362.791 513.215,383.958 487.5,404C 428.833,448.667 370.167,493.333 311.5,538C 310.216,538.684 309.049,538.517 308,537.5C 294.167,519.667 280.333,501.833 266.5,484C 367.321,408.423 468.321,333.09 569.5,258C 591.497,257.5 613.497,257.333 635.5,257.5 Z"/></g>
<g><path style="opacity:1" fill="#40aa85" d="M 635.5,257.5 C 636.167,359.167 636.833,460.833 637.5,562.5C 637.217,563.289 636.717,563.956 636,564.5C 635.5,462.167 635.333,359.834 635.5,257.5 Z"/></g>
<g><path style="opacity:1" fill="#028d5c" d="M 1107.5,317.5 C 1244.28,312.584 1363.94,354.751 1466.5,444C 1581.39,550.346 1636.56,682.179 1632,839.5C 1621.03,995.627 1553.87,1121.13 1430.5,1216C 1304.48,1305.41 1165.81,1333.08 1014.5,1299C 881.864,1262.98 779.364,1186.81 707,1070.5C 637.324,949.1 619.658,820.433 654,684.5C 692.178,553.023 770.011,452.523 887.5,383C 955.874,344.262 1029.21,322.428 1107.5,317.5 Z"/></g>
<g><path style="opacity:1" fill="#fcfdfd" d="M 1348.5,466.5 C 1353.83,466.5 1359.17,466.5 1364.5,466.5C 1365.03,474.337 1364.2,482.003 1362,489.5C 1360.62,492.108 1358.46,493.608 1355.5,494C 1350.83,494.667 1346.17,494.667 1341.5,494C 1334.2,492.235 1327.04,490.068 1320,487.5C 1318.29,487.439 1316.96,488.106 1316,489.5C 1315.5,492.146 1315.34,494.813 1315.5,497.5C 1310.17,497.5 1304.83,497.5 1299.5,497.5C 1299.23,490.77 1299.73,484.103 1301,477.5C 1304.85,469.974 1311.02,467.14 1319.5,469C 1327.93,471.201 1336.27,473.701 1344.5,476.5C 1346.03,476.471 1347.2,475.804 1348,474.5C 1348.5,471.854 1348.66,469.187 1348.5,466.5 Z"/></g>
<g><path style="opacity:1" fill="#fcfefd" d="M 853.5,652.5 C 855.463,659.424 856.13,666.757 855.5,674.5C 840.904,679.623 826.238,679.789 811.5,675C 804.52,671.895 799.686,666.729 797,659.5C 794.703,652.312 793.036,644.978 792,637.5C 790.532,612.85 790.199,588.183 791,563.5C 790.809,548.295 794.142,533.962 801,520.5C 806.138,514.514 812.638,511.014 820.5,510C 830.878,509.162 841.212,509.495 851.5,511C 852.5,511.5 853.5,512 854.5,512.5C 855.497,520.138 855.831,527.804 855.5,535.5C 846.523,534.486 837.523,534.319 828.5,535C 822.461,538.748 819.627,544.248 820,551.5C 818.085,579.163 818.085,606.83 820,634.5C 819.598,643.023 823.098,649.19 830.5,653C 838.185,653.597 845.852,653.43 853.5,652.5 Z"/></g>
<g><path style="opacity:1" fill="#fdfefd" d="M 896.5,509.5 C 906.839,509.334 917.172,509.5 927.5,510C 936.244,510.617 943.077,514.451 948,521.5C 953.553,532.47 956.219,544.137 956,556.5C 956.836,585.183 956.502,613.849 955,642.5C 954.32,653.892 950.153,663.726 942.5,672C 933.268,676.79 923.435,678.956 913,678.5C 902.517,679.101 892.684,676.934 883.5,672C 877.807,667.119 874.307,660.952 873,653.5C 870.091,632.957 868.925,612.29 869.5,591.5C 868.592,570.63 870.092,549.963 874,529.5C 877.656,518.336 885.156,511.669 896.5,509.5 Z"/></g>
<g><path style="opacity:1" fill="#fdfefe" d="M 1418.5,509.5 C 1428.84,509.334 1439.17,509.5 1449.5,510C 1464.94,512.111 1473.78,520.944 1476,536.5C 1478.04,555.432 1478.87,574.432 1478.5,593.5C 1478.33,607.167 1478.17,620.833 1478,634.5C 1477.77,646.335 1474.77,657.335 1469,667.5C 1464.73,672.761 1459.23,675.928 1452.5,677C 1439.43,679.203 1426.43,678.869 1413.5,676C 1401.47,670.47 1394.97,660.97 1394,647.5C 1390.38,609.788 1390.72,572.122 1395,534.5C 1397.44,520.875 1405.27,512.542 1418.5,509.5 Z"/></g>
<g><path style="opacity:1" fill="#fdfefd" d="M 995.5,510.5 C 1009.58,509.862 1023.41,510.528 1037,512.5C 1046.13,567.105 1055.63,621.605 1065.5,676C 1055.84,676.5 1046.17,676.666 1036.5,676.5C 1034.6,664.186 1032.77,651.853 1031,639.5C 1020.92,638.514 1010.75,638.181 1000.5,638.5C 998.37,651.151 996.37,663.818 994.5,676.5C 985.161,676.666 975.827,676.5 966.5,676C 976.209,620.874 985.876,565.708 995.5,510.5 Z"/></g>
<g><path style="opacity:1" fill="#fefefe" d="M 1106.5,650.5 C 1117.65,651.495 1128.99,651.828 1140.5,651.5C 1140.5,659.833 1140.5,668.167 1140.5,676.5C 1119.83,676.5 1099.17,676.5 1078.5,676.5C 1078.5,621.5 1078.5,566.5 1078.5,511.5C 1087.5,511.5 1096.5,511.5 1105.5,511.5C 1105.17,558.003 1105.5,604.336 1106.5,650.5 Z"/></g>
<g><path style="opacity:1" fill="#aad9c8" d="M 1106.5,650.5 C 1105.5,604.336 1105.17,558.003 1105.5,511.5C 1096.5,511.5 1087.5,511.5 1078.5,511.5C 1078.5,566.5 1078.5,621.5 1078.5,676.5C 1077.5,621.336 1077.17,566.003 1077.5,510.5C 1087.17,510.5 1096.83,510.5 1106.5,510.5C 1106.5,557.167 1106.5,603.833 1106.5,650.5 Z"/></g>
<g><path style="opacity:1" fill="#88c9b2" d="M 1182.5,511.5 C 1173.17,511.5 1163.83,511.5 1154.5,511.5C 1154.5,566.5 1154.5,621.5 1154.5,676.5C 1153.5,621.336 1153.17,566.003 1153.5,510.5C 1163.35,510.173 1173.01,510.506 1182.5,511.5 Z"/></g>
<g><path style="opacity:1" fill="#fefffe" d="M 1182.5,511.5 C 1182.5,566.5 1182.5,621.5 1182.5,676.5C 1173.17,676.5 1163.83,676.5 1154.5,676.5C 1154.5,621.5 1154.5,566.5 1154.5,511.5C 1163.83,511.5 1173.17,511.5 1182.5,511.5 Z"/></g>
<g><path style="opacity:1" fill="#fefefe" d="M 1200.5,511.5 C 1225.17,511.5 1249.83,511.5 1274.5,511.5C 1274.5,519.167 1274.5,526.833 1274.5,534.5C 1259.44,573.357 1244.77,612.357 1230.5,651.5C 1245.5,651.5 1260.5,651.5 1275.5,651.5C 1275.5,659.833 1275.5,668.167 1275.5,676.5C 1250.17,676.5 1224.83,676.5 1199.5,676.5C 1199.33,667.827 1199.5,659.16 1200,650.5C 1214.61,612.17 1229.11,573.837 1243.5,535.5C 1229.17,535.5 1214.83,535.5 1200.5,535.5C 1200.5,527.5 1200.5,519.5 1200.5,511.5 Z"/></g>
<g><path style="opacity:1" fill="#9ad2be" d="M 1200.5,511.5 C 1225.33,510.502 1250.33,510.169 1275.5,510.5C 1275.83,518.684 1275.49,526.684 1274.5,534.5C 1274.5,526.833 1274.5,519.167 1274.5,511.5C 1249.83,511.5 1225.17,511.5 1200.5,511.5 Z"/></g>
<g><path style="opacity:1" fill="#fdfefd" d="M 1311.5,510.5 C 1325.41,510.177 1339.25,510.51 1353,511.5C 1362.5,566.513 1372,621.513 1381.5,676.5C 1371.83,676.5 1362.17,676.5 1352.5,676.5C 1351.27,663.773 1349.6,651.106 1347.5,638.5C 1337.17,638.5 1326.83,638.5 1316.5,638.5C 1314.54,651.128 1312.87,663.795 1311.5,676.5C 1302.17,676.5 1292.83,676.5 1283.5,676.5C 1292.45,621.099 1301.78,565.765 1311.5,510.5 Z"/></g>
<g><path style="opacity:1" fill="#0a8e5e" d="M 904.5,534.5 C 909.844,534.334 915.177,534.501 920.5,535C 924.683,537.173 926.849,540.673 927,545.5C 928.539,574.482 928.872,603.482 928,632.5C 927.322,637.572 926.322,642.572 925,647.5C 923.833,650 922,651.833 919.5,653C 904.715,655.89 897.549,649.724 898,634.5C 897.333,607.167 897.333,579.833 898,552.5C 897.906,545.611 900.072,539.611 904.5,534.5 Z"/></g>
<g><path style="opacity:1" fill="#0d8f5f" d="M 1431.5,533.5 C 1444.32,532.487 1450.49,538.487 1450,551.5C 1450.93,581.194 1450.6,610.861 1449,640.5C 1449.14,650.032 1444.47,654.365 1435,653.5C 1428.46,654.396 1424.12,651.729 1422,645.5C 1421.42,640.489 1420.75,635.489 1420,630.5C 1419.09,602.476 1419.42,574.476 1421,546.5C 1421.25,539.236 1424.75,534.902 1431.5,533.5 Z"/></g>
<g><path style="opacity:1" fill="#149061" d="M 1331.5,539.5 C 1332.12,539.611 1332.62,539.944 1333,540.5C 1336.36,565.204 1339.86,589.87 1343.5,614.5C 1335.83,614.5 1328.17,614.5 1320.5,614.5C 1324.04,589.476 1327.71,564.476 1331.5,539.5 Z"/></g>
<g><path style="opacity:1" fill="#179162" d="M 1014.5,539.5 C 1015.93,539.881 1016.76,540.881 1017,542.5C 1020.68,566.445 1023.85,590.445 1026.5,614.5C 1019.17,614.5 1011.83,614.5 1004.5,614.5C 1007.65,589.475 1010.98,564.475 1014.5,539.5 Z"/></g>
<g><path style="opacity:1" fill="#a7d8c6" d="M 1106.5,650.5 C 1118.17,650.5 1129.83,650.5 1141.5,650.5C 1141.83,659.349 1141.49,668.016 1140.5,676.5C 1140.5,668.167 1140.5,659.833 1140.5,651.5C 1128.99,651.828 1117.65,651.495 1106.5,650.5 Z"/></g>
<g><path style="opacity:1" fill="#bbe1d3" d="M 853.5,652.5 C 854.209,651.596 855.209,651.263 856.5,651.5C 856.825,659.352 856.492,667.018 855.5,674.5C 856.13,666.757 855.463,659.424 853.5,652.5 Z"/></g>
<g><path style="opacity:1" fill="#fdfefd" d="M 1214.5,727.5 C 1228.68,726.84 1242.68,728.006 1256.5,731C 1257.48,738.413 1257.81,745.913 1257.5,753.5C 1250.35,753.031 1243.18,752.698 1236,752.5C 1217.5,749.667 1209.67,757.5 1212.5,776C 1212.67,780.5 1212.83,785 1213,789.5C 1214.35,792.934 1216.85,795.101 1220.5,796C 1230.33,797.782 1239.99,800.116 1249.5,803C 1254.58,806.641 1258.08,811.475 1260,817.5C 1263.25,835.488 1263.25,853.488 1260,871.5C 1256.91,885.927 1248.07,894.094 1233.5,896C 1218.01,897.233 1202.68,896.233 1187.5,893C 1186.52,885.587 1186.19,878.087 1186.5,870.5C 1198.82,871.419 1211.16,871.586 1223.5,871C 1229.63,870.204 1233.13,866.704 1234,860.5C 1234.67,853.167 1234.67,845.833 1234,838.5C 1234.57,831.804 1231.74,827.304 1225.5,825C 1214.95,823.077 1204.61,820.41 1194.5,817C 1188.76,812.287 1185.59,806.12 1185,798.5C 1184.33,785.167 1184.33,771.833 1185,758.5C 1187.26,740.746 1197.09,730.413 1214.5,727.5 Z"/></g>
<g><path style="opacity:1" fill="#fefefe" d="M 886.5,729.5 C 904.503,729.333 922.503,729.5 940.5,730C 956.198,733.033 965.031,742.533 967,758.5C 967.804,768.873 967.471,779.207 966,789.5C 963.33,799.503 957.163,806.336 947.5,810C 957.738,813.239 964.238,820.072 967,830.5C 969.723,846.43 968.723,862.096 964,877.5C 958.791,887.867 950.291,893.367 938.5,894C 921.17,894.5 903.837,894.667 886.5,894.5C 886.5,839.5 886.5,784.5 886.5,729.5 Z"/></g>
<g><path style="opacity:1" fill="#fdfefd" d="M 1028.5,835.5 C 1023.69,834.513 1018.69,834.179 1013.5,834.5C 1013.5,854.5 1013.5,874.5 1013.5,894.5C 1004.17,894.5 994.833,894.5 985.5,894.5C 985.5,839.5 985.5,784.5 985.5,729.5C 1005.87,729.087 1026.2,729.587 1046.5,731C 1052.97,732.647 1058.14,736.147 1062,741.5C 1064.77,746.901 1066.77,752.568 1068,758.5C 1068.67,772.833 1068.67,787.167 1068,801.5C 1067.78,813.057 1063.28,822.39 1054.5,829.5C 1060.75,851.107 1066.75,872.774 1072.5,894.5C 1062.81,894.832 1053.14,894.498 1043.5,893.5C 1038.79,873.977 1033.79,854.644 1028.5,835.5 Z"/></g>
<g><path style="opacity:1" fill="#fdfefd" d="M 1176.5,891.5 C 1176.5,892.5 1176.5,893.5 1176.5,894.5C 1167.17,894.5 1157.83,894.5 1148.5,894.5C 1146.72,882.457 1144.72,870.457 1142.5,858.5C 1132.52,857.501 1122.52,857.168 1112.5,857.5C 1110.24,869.797 1108.24,882.13 1106.5,894.5C 1097.14,894.832 1087.81,894.498 1078.5,893.5C 1088.7,838.971 1098.03,784.304 1106.5,729.5C 1120.91,728.861 1135.08,729.528 1149,731.5C 1158.06,784.859 1167.23,838.192 1176.5,891.5 Z"/></g>
<g><path style="opacity:1" fill="#fcfefd" d="M 1279.5,729.5 C 1288.83,729.5 1298.17,729.5 1307.5,729.5C 1307.5,784.5 1307.5,839.5 1307.5,894.5C 1298.17,894.5 1288.83,894.5 1279.5,894.5C 1279.5,839.5 1279.5,784.5 1279.5,729.5 Z"/></g>
<g><path style="opacity:1" fill="#fdfefd" d="M 1329.5,729.5 C 1338.83,729.5 1348.17,729.5 1357.5,729.5C 1357.5,776.167 1357.5,822.833 1357.5,869.5C 1369.17,869.5 1380.83,869.5 1392.5,869.5C 1392.5,877.833 1392.5,886.167 1392.5,894.5C 1371.5,894.5 1350.5,894.5 1329.5,894.5C 1329.5,839.5 1329.5,784.5 1329.5,729.5 Z"/></g>
<g><path style="opacity:1" fill="#79c2a9" d="M 928.5,754.5 C 923.833,754.5 919.167,754.5 914.5,754.5C 914.5,769.167 914.5,783.833 914.5,798.5C 919.167,798.5 923.833,798.5 928.5,798.5C 923.695,799.487 918.695,799.821 913.5,799.5C 913.5,784.167 913.5,768.833 913.5,753.5C 918.695,753.179 923.695,753.513 928.5,754.5 Z"/></g>
<g><path style="opacity:1" fill="#038d5c" d="M 928.5,754.5 C 932.548,754.441 935.715,756.108 938,759.5C 940.186,770.902 939.852,782.235 937,793.5C 934.971,796.596 932.138,798.262 928.5,798.5C 923.833,798.5 919.167,798.5 914.5,798.5C 914.5,783.833 914.5,769.167 914.5,754.5C 919.167,754.5 923.833,754.5 928.5,754.5 Z"/></g>
<g><path style="opacity:1" fill="#0c8f5f" d="M 1013.5,754.5 C 1019.84,754.334 1026.18,754.5 1032.5,755C 1037.2,756.371 1039.7,759.537 1040,764.5C 1040.67,776.5 1040.67,788.5 1040,800.5C 1039.29,806.215 1036.12,809.715 1030.5,811C 1024.84,811.499 1019.18,811.666 1013.5,811.5C 1013.5,792.5 1013.5,773.5 1013.5,754.5 Z"/></g>
<g><path style="opacity:1" fill="#1a9263" d="M 1126.5,758.5 C 1127.93,758.881 1128.76,759.881 1129,761.5C 1132.68,785.445 1135.85,809.445 1138.5,833.5C 1131.17,833.5 1123.83,833.5 1116.5,833.5C 1119.46,808.45 1122.79,783.45 1126.5,758.5 Z"/></g>
<g><path style="opacity:1" fill="#82c7af" d="M 928.5,823.5 C 923.833,823.5 919.167,823.5 914.5,823.5C 914.5,838.833 914.5,854.167 914.5,869.5C 919.833,869.5 925.167,869.5 930.5,869.5C 925.025,870.489 919.358,870.822 913.5,870.5C 913.5,854.5 913.5,838.5 913.5,822.5C 918.695,822.179 923.695,822.513 928.5,823.5 Z"/></g>
<g><path style="opacity:1" fill="#078e5d" d="M 928.5,823.5 C 935.509,824.344 939.342,828.344 940,835.5C 940.881,844.562 940.548,853.562 939,862.5C 937.795,866.877 934.961,869.21 930.5,869.5C 925.167,869.5 919.833,869.5 914.5,869.5C 914.5,854.167 914.5,838.833 914.5,823.5C 919.167,823.5 923.833,823.5 928.5,823.5 Z"/></g>
<g><path style="opacity:1" fill="#4cae8b" d="M 1028.5,835.5 C 1023.83,835.5 1019.17,835.5 1014.5,835.5C 1014.83,855.34 1014.5,875.007 1013.5,894.5C 1013.5,874.5 1013.5,854.5 1013.5,834.5C 1018.69,834.179 1023.69,834.513 1028.5,835.5 Z"/></g>
<g><path style="opacity:1" fill="#43ab87" d="M 1176.5,891.5 C 1177.43,892.568 1177.77,893.901 1177.5,895.5C 1167.65,895.827 1157.99,895.494 1148.5,894.5C 1157.83,894.5 1167.17,894.5 1176.5,894.5C 1176.5,893.5 1176.5,892.5 1176.5,891.5 Z"/></g>
<g><path style="opacity:1" fill="#f9fcfb" d="M 809.5,947.5 C 815.282,947.311 820.948,947.978 826.5,949.5C 826.5,953.5 826.5,957.5 826.5,961.5C 821.814,961.162 817.147,960.995 812.5,961C 811.333,962.167 810.167,963.333 809,964.5C 807.878,972.928 807.378,981.428 807.5,990C 807.423,999.542 807.923,1009.04 809,1018.5C 810.167,1019.67 811.333,1020.83 812.5,1022C 817.204,1022.65 821.871,1022.48 826.5,1021.5C 826.824,1025.55 826.491,1029.55 825.5,1033.5C 805.176,1039.93 794.343,1032.6 793,1011.5C 792.138,995.801 792.471,980.134 794,964.5C 795.099,954.883 800.265,949.217 809.5,947.5 Z"/></g>
<g><path style="opacity:1" fill="#bae0d2" d="M 985.5,949.5 C 988.984,948.835 992.651,948.501 996.5,948.5C 1000.57,948.511 1004.23,949.178 1007.5,950.5C 1000.25,949.536 992.92,949.203 985.5,949.5 Z"/></g>
<g><path style="opacity:1" fill="#fcfefd" d="M 1168.5,947.5 C 1175.82,946.859 1182.82,948.025 1189.5,951C 1193.57,954.543 1195.74,959.043 1196,964.5C 1196.94,984.21 1196.6,1003.88 1195,1023.5C 1192.83,1030.67 1188,1034.5 1180.5,1035C 1173.13,1036.31 1166.13,1035.31 1159.5,1032C 1155.45,1027.67 1153.29,1022.51 1153,1016.5C 1152.33,998.833 1152.33,981.167 1153,963.5C 1154.37,954.295 1159.54,948.962 1168.5,947.5 Z"/></g>
<g><path style="opacity:1" fill="#fbfdfc" d="M 1316.5,947.5 C 1323.59,947.341 1330.59,948.007 1337.5,949.5C 1337.5,953.5 1337.5,957.5 1337.5,961.5C 1317.49,955.677 1310.49,962.51 1316.5,982C 1322.88,983.876 1329.22,985.876 1335.5,988C 1339.89,993.731 1341.55,1000.23 1340.5,1007.5C 1341.49,1016.7 1339.16,1024.87 1333.5,1032C 1330.91,1033.2 1328.24,1034.2 1325.5,1035C 1317.43,1035.6 1309.43,1035.1 1301.5,1033.5C 1301.5,1029.5 1301.5,1025.5 1301.5,1021.5C 1308.14,1022.44 1314.81,1022.61 1321.5,1022C 1323,1021.17 1324.17,1020 1325,1018.5C 1325.79,1012.45 1325.62,1006.45 1324.5,1000.5C 1318.77,997.981 1312.77,996.148 1306.5,995C 1303.82,993.16 1301.99,990.66 1301,987.5C 1300.11,977.772 1300.44,968.106 1302,958.5C 1304.82,952.023 1309.65,948.356 1316.5,947.5 Z"/></g>
<g><path style="opacity:1" fill="#aad9c8" d="M 1385.5,961.5 C 1385.5,957.5 1385.5,953.5 1385.5,949.5C 1371.83,949.5 1358.17,949.5 1344.5,949.5C 1344.5,953.5 1344.5,957.5 1344.5,961.5C 1343.52,957.366 1343.18,953.032 1343.5,948.5C 1357.83,948.5 1372.17,948.5 1386.5,948.5C 1386.82,953.032 1386.48,957.366 1385.5,961.5 Z"/></g>
<g><path style="opacity:1" fill="#bae1d3" d="M 1419.5,949.5 C 1412.5,949.5 1405.5,949.5 1398.5,949.5C 1398.74,950.791 1398.4,951.791 1397.5,952.5C 1397.5,951.167 1397.5,949.833 1397.5,948.5C 1405.02,948.175 1412.35,948.508 1419.5,949.5 Z"/></g>
<g><path style="opacity:1" fill="#fafcfb" d="M 1452.5,947.5 C 1460.25,947.352 1467.92,948.019 1475.5,949.5C 1475.5,953.5 1475.5,957.5 1475.5,961.5C 1469.54,960.47 1463.54,960.303 1457.5,961C 1453.02,963.439 1451.36,967.273 1452.5,972.5C 1452.67,975.167 1452.83,977.833 1453,980.5C 1453.83,981.333 1454.67,982.167 1455.5,983C 1460.9,984.08 1466.23,985.413 1471.5,987C 1473.81,988.109 1475.31,989.943 1476,992.5C 1479.23,1003.47 1479.23,1014.47 1476,1025.5C 1473.67,1030.42 1469.84,1033.59 1464.5,1035C 1456.07,1035.85 1447.74,1035.35 1439.5,1033.5C 1439.5,1029.5 1439.5,1025.5 1439.5,1021.5C 1445.82,1022.28 1452.15,1022.44 1458.5,1022C 1460.29,1021.22 1461.79,1020.05 1463,1018.5C 1463.67,1012.83 1463.67,1007.17 1463,1001.5C 1462.17,1000.67 1461.33,999.833 1460.5,999C 1454.48,997.33 1448.48,995.663 1442.5,994C 1440.96,992.421 1439.79,990.587 1439,988.5C 1437.65,980.203 1437.32,971.87 1438,963.5C 1439.92,955.419 1444.75,950.085 1452.5,947.5 Z"/></g>
<g><path style="opacity:1" fill="#fefefe" d="M 834.5,949.5 C 839.167,949.5 843.833,949.5 848.5,949.5C 848.169,973.339 848.502,997.006 849.5,1020.5C 854.975,1021.49 860.642,1021.82 866.5,1021.5C 866.5,1025.5 866.5,1029.5 866.5,1033.5C 855.833,1033.5 845.167,1033.5 834.5,1033.5C 834.5,1005.5 834.5,977.5 834.5,949.5 Z"/></g>
<g><path style="opacity:1" fill="#bee2d5" d="M 834.5,949.5 C 839.305,948.513 844.305,948.179 849.5,948.5C 849.5,972.5 849.5,996.5 849.5,1020.5C 848.502,997.006 848.169,973.339 848.5,949.5C 843.833,949.5 839.167,949.5 834.5,949.5 Z"/></g>
<g><path style="opacity:1" fill="#bee2d5" d="M 888.5,949.5 C 883.833,949.5 879.167,949.5 874.5,949.5C 874.5,977.5 874.5,1005.5 874.5,1033.5C 879.167,1033.5 883.833,1033.5 888.5,1033.5C 883.695,1034.49 878.695,1034.82 873.5,1034.5C 873.5,1005.83 873.5,977.167 873.5,948.5C 878.695,948.179 883.695,948.513 888.5,949.5 Z"/></g>
<g><path style="opacity:1" fill="#fefffe" d="M 888.5,949.5 C 888.5,977.5 888.5,1005.5 888.5,1033.5C 883.833,1033.5 879.167,1033.5 874.5,1033.5C 874.5,1005.5 874.5,977.5 874.5,949.5C 879.167,949.5 883.833,949.5 888.5,949.5 Z"/></g>
<g><path style="opacity:1" fill="#fcfefd" d="M 941.5,949.5 C 948.833,949.5 956.167,949.5 963.5,949.5C 963.5,977.5 963.5,1005.5 963.5,1033.5C 959.167,1033.5 954.833,1033.5 950.5,1033.5C 950.667,1011.5 950.5,989.497 950,967.5C 948.812,968.563 948.312,969.897 948.5,971.5C 945.369,992.485 942.369,1013.48 939.5,1034.5C 934.5,1034.5 929.5,1034.5 924.5,1034.5C 921.325,1012.12 917.825,989.791 914,967.5C 913.5,989.831 913.333,1012.16 913.5,1034.5C 908.833,1034.5 904.167,1034.5 899.5,1034.5C 899.5,1005.83 899.5,977.167 899.5,948.5C 907.167,948.5 914.833,948.5 922.5,948.5C 925.502,969.85 928.669,991.183 932,1012.5C 935.399,991.538 938.566,970.538 941.5,949.5 Z"/></g>
<g><path style="opacity:1" fill="#bee2d5" d="M 941.5,949.5 C 948.982,948.508 956.648,948.175 964.5,948.5C 964.5,977.167 964.5,1005.83 964.5,1034.5C 959.833,1034.5 955.167,1034.5 950.5,1034.5C 950.5,1034.17 950.5,1033.83 950.5,1033.5C 954.833,1033.5 959.167,1033.5 963.5,1033.5C 963.5,1005.5 963.5,977.5 963.5,949.5C 956.167,949.5 948.833,949.5 941.5,949.5 Z"/></g>
<g><path style="opacity:1" fill="#fcfdfd" d="M 985.5,949.5 C 992.92,949.203 1000.25,949.536 1007.5,950.5C 1012.38,978.461 1017.05,1006.46 1021.5,1034.5C 1016.5,1034.5 1011.5,1034.5 1006.5,1034.5C 1006.1,1028.12 1005.27,1021.78 1004,1015.5C 998.667,1014.17 993.333,1014.17 988,1015.5C 986.969,1021.48 986.136,1027.48 985.5,1033.5C 980.833,1033.5 976.167,1033.5 971.5,1033.5C 971.5,1032.5 971.5,1031.5 971.5,1030.5C 975.843,1003.44 980.51,976.44 985.5,949.5 Z"/></g>
<g><path style="opacity:1" fill="#bee2d5" d="M 1106.5,949.5 C 1095.83,949.5 1085.17,949.5 1074.5,949.5C 1074.5,977.5 1074.5,1005.5 1074.5,1033.5C 1079.17,1033.5 1083.83,1033.5 1088.5,1033.5C 1083.69,1034.49 1078.69,1034.82 1073.5,1034.5C 1073.5,1005.83 1073.5,977.167 1073.5,948.5C 1084.68,948.172 1095.68,948.505 1106.5,949.5 Z"/></g>
<g><path style="opacity:1" fill="#fefefe" d="M 1106.5,949.5 C 1106.5,953.5 1106.5,957.5 1106.5,961.5C 1100.5,961.5 1094.5,961.5 1088.5,961.5C 1088.5,969.833 1088.5,978.167 1088.5,986.5C 1093.83,986.5 1099.17,986.5 1104.5,986.5C 1104.5,990.833 1104.5,995.167 1104.5,999.5C 1099.17,999.5 1093.83,999.5 1088.5,999.5C 1088.5,1010.83 1088.5,1022.17 1088.5,1033.5C 1083.83,1033.5 1079.17,1033.5 1074.5,1033.5C 1074.5,1005.5 1074.5,977.5 1074.5,949.5C 1085.17,949.5 1095.83,949.5 1106.5,949.5 Z"/></g>
<g><path style="opacity:1" fill="#fefefe" d="M 1114.5,949.5 C 1119.17,949.5 1123.83,949.5 1128.5,949.5C 1128.17,973.339 1128.5,997.006 1129.5,1020.5C 1134.98,1021.49 1140.64,1021.82 1146.5,1021.5C 1146.5,1025.5 1146.5,1029.5 1146.5,1033.5C 1135.83,1033.5 1125.17,1033.5 1114.5,1033.5C 1114.5,1005.5 1114.5,977.5 1114.5,949.5 Z"/></g>
<g><path style="opacity:1" fill="#bee2d5" d="M 1114.5,949.5 C 1119.31,948.513 1124.31,948.179 1129.5,948.5C 1129.5,972.5 1129.5,996.5 1129.5,1020.5C 1128.5,997.006 1128.17,973.339 1128.5,949.5C 1123.83,949.5 1119.17,949.5 1114.5,949.5 Z"/></g>
<g><path style="opacity:1" fill="#fbfdfc" d="M 1250.5,1031.5 C 1246.29,1033.44 1241.62,1034.1 1236.5,1033.5C 1233.88,1023.69 1231.55,1013.69 1229.5,1003.5C 1226.83,1003.5 1224.17,1003.5 1221.5,1003.5C 1220.51,1013.32 1220.17,1023.32 1220.5,1033.5C 1215.83,1033.5 1211.17,1033.5 1206.5,1033.5C 1206.5,1005.17 1206.5,976.833 1206.5,948.5C 1216.17,948.334 1225.84,948.5 1235.5,949C 1243.31,950.139 1247.81,954.639 1249,962.5C 1249.67,971.167 1249.67,979.833 1249,988.5C 1247.87,993.428 1245.7,997.762 1242.5,1001.5C 1245.17,1011.52 1247.84,1021.52 1250.5,1031.5 Z"/></g>
<g><path style="opacity:1" fill="#96d0bb" d="M 1293.5,949.5 C 1282.17,949.5 1270.83,949.5 1259.5,949.5C 1259.5,977.5 1259.5,1005.5 1259.5,1033.5C 1270.83,1033.5 1282.17,1033.5 1293.5,1033.5C 1282.01,1034.49 1270.35,1034.83 1258.5,1034.5C 1258.5,1005.83 1258.5,977.167 1258.5,948.5C 1270.35,948.172 1282.01,948.505 1293.5,949.5 Z"/></g>
<g><path style="opacity:1" fill="#fefefe" d="M 1293.5,949.5 C 1293.5,953.5 1293.5,957.5 1293.5,961.5C 1286.83,961.5 1280.17,961.5 1273.5,961.5C 1273.17,969.352 1273.51,977.018 1274.5,984.5C 1280.17,984.5 1285.83,984.5 1291.5,984.5C 1291.5,988.833 1291.5,993.167 1291.5,997.5C 1285.83,997.5 1280.17,997.5 1274.5,997.5C 1273.51,1005.32 1273.17,1013.32 1273.5,1021.5C 1280.17,1021.5 1286.83,1021.5 1293.5,1021.5C 1293.5,1025.5 1293.5,1029.5 1293.5,1033.5C 1282.17,1033.5 1270.83,1033.5 1259.5,1033.5C 1259.5,1005.5 1259.5,977.5 1259.5,949.5C 1270.83,949.5 1282.17,949.5 1293.5,949.5 Z"/></g>
<g><path style="opacity:1" fill="#fefefe" d="M 1385.5,961.5 C 1381.17,961.5 1376.83,961.5 1372.5,961.5C 1372.5,985.5 1372.5,1009.5 1372.5,1033.5C 1367.83,1033.5 1363.17,1033.5 1358.5,1033.5C 1358.83,1009.66 1358.5,985.994 1357.5,962.5C 1353.37,961.515 1349.03,961.182 1344.5,961.5C 1344.5,957.5 1344.5,953.5 1344.5,949.5C 1358.17,949.5 1371.83,949.5 1385.5,949.5C 1385.5,953.5 1385.5,957.5 1385.5,961.5 Z"/></g>
<g><path style="opacity:1" fill="#fcfdfd" d="M 1419.5,949.5 C 1424.44,976.753 1429.11,1004.09 1433.5,1031.5C 1429.29,1033.44 1424.62,1034.1 1419.5,1033.5C 1418.5,1027.49 1417.5,1021.49 1416.5,1015.5C 1411.21,1014.51 1405.87,1014.17 1400.5,1014.5C 1399.72,1020.15 1399.06,1025.82 1398.5,1031.5C 1396.28,1032.7 1393.78,1033.37 1391,1033.5C 1388.39,1033.47 1386.22,1032.8 1384.5,1031.5C 1388.19,1005.06 1392.52,978.726 1397.5,952.5C 1398.4,951.791 1398.74,950.791 1398.5,949.5C 1405.5,949.5 1412.5,949.5 1419.5,949.5 Z"/></g>
<g><path style="opacity:1" fill="#169162" d="M 1170.5,960.5 C 1177,958.751 1180.84,961.084 1182,967.5C 1182.67,983.5 1182.67,999.5 1182,1015.5C 1180.76,1022.07 1176.93,1024.24 1170.5,1022C 1168.68,1020.2 1167.52,1018.03 1167,1015.5C 1166.33,999.5 1166.33,983.5 1167,967.5C 1167.65,964.861 1168.82,962.527 1170.5,960.5 Z"/></g>
<g><path style="opacity:1" fill="#088e5e" d="M 1221.5,961.5 C 1232.98,959.813 1237.31,964.647 1234.5,976C 1234.61,980.612 1234.11,985.112 1233,989.5C 1229.27,990.46 1225.44,990.793 1221.5,990.5C 1221.5,980.833 1221.5,971.167 1221.5,961.5 Z"/></g>
<g><path style="opacity:1" fill="#41aa85" d="M 1293.5,961.5 C 1287.36,962.49 1281.02,962.823 1274.5,962.5C 1274.5,969.833 1274.5,977.167 1274.5,984.5C 1274.5,977.167 1274.5,969.833 1274.5,962.5C 1281.02,962.823 1287.36,962.49 1293.5,961.5 Z"/></g>
<g><path style="opacity:1" fill="#bee2d5" d="M 1357.5,962.5 C 1358.5,985.994 1358.83,1009.66 1358.5,1033.5C 1363.17,1033.5 1367.83,1033.5 1372.5,1033.5C 1367.69,1034.49 1362.69,1034.82 1357.5,1034.5C 1357.5,1010.5 1357.5,986.5 1357.5,962.5 Z"/></g>
<g><path style="opacity:1" fill="#279769" d="M 995.5,964.5 C 996.222,964.918 996.722,965.584 997,966.5C 998.922,978.455 1000.42,990.455 1001.5,1002.5C 997.833,1002.5 994.167,1002.5 990.5,1002.5C 991.608,989.748 993.274,977.081 995.5,964.5 Z"/></g>
<g><path style="opacity:1" fill="#27976a" d="M 1408.5,965.5 C 1411.41,977.544 1413.41,989.877 1414.5,1002.5C 1410.5,1002.5 1406.5,1002.5 1402.5,1002.5C 1404.13,990.094 1406.13,977.76 1408.5,965.5 Z"/></g>
<g><path style="opacity:1" fill="#80c6ae" d="M 950.5,1033.5 C 950.5,1033.83 950.5,1034.17 950.5,1034.5C 949.833,1013.5 949.167,992.5 948.5,971.5C 948.312,969.897 948.812,968.563 950,967.5C 950.5,989.497 950.667,1011.5 950.5,1033.5 Z"/></g>
<g><path style="opacity:1" fill="#bee2d5" d="M 1221.5,1003.5 C 1221.5,1013.83 1221.5,1024.17 1221.5,1034.5C 1216.31,1034.82 1211.31,1034.49 1206.5,1033.5C 1211.17,1033.5 1215.83,1033.5 1220.5,1033.5C 1220.17,1023.32 1220.51,1013.32 1221.5,1003.5 Z"/></g>
<g><path style="opacity:1" fill="#fbfdfd" d="M 1028.5,1019.5 C 1033.5,1019.5 1038.5,1019.5 1043.5,1019.5C 1043.67,1026.84 1043.5,1034.17 1043,1041.5C 1041.24,1049.84 1036.07,1053.17 1027.5,1051.5C 1027.5,1049.5 1027.5,1047.5 1027.5,1045.5C 1029.9,1045.61 1031.74,1044.61 1033,1042.5C 1033.5,1039.85 1033.66,1037.19 1033.5,1034.5C 1031.83,1034.5 1030.17,1034.5 1028.5,1034.5C 1028.5,1029.5 1028.5,1024.5 1028.5,1019.5 Z"/></g>
<g><path style="opacity:1" fill="#40aa85" d="M 1274.5,997.5 C 1274.5,1005.17 1274.5,1012.83 1274.5,1020.5C 1281.02,1020.18 1287.36,1020.51 1293.5,1021.5C 1286.83,1021.5 1280.17,1021.5 1273.5,1021.5C 1273.17,1013.32 1273.51,1005.32 1274.5,997.5 Z"/></g>
<g><path style="opacity:1" fill="#bbe1d3" d="M 1250.5,1031.5 C 1251.4,1032.21 1251.74,1033.21 1251.5,1034.5C 1246.31,1034.82 1241.31,1034.49 1236.5,1033.5C 1241.62,1034.1 1246.29,1033.44 1250.5,1031.5 Z"/></g>
<g><path style="opacity:1" fill="#b0dccc" d="M 849.5,1020.5 C 855.5,1020.5 861.5,1020.5 867.5,1020.5C 867.5,1025.17 867.5,1029.83 867.5,1034.5C 856.321,1034.83 845.321,1034.49 834.5,1033.5C 845.321,1034.49 856.321,1034.83 867.5,1034.5C 867.5,1029.83 867.5,1025.17 867.5,1020.5C 861.5,1020.5 855.5,1020.5 849.5,1020.5 Z"/></g>
<g><path style="opacity:1" fill="#b1dccc" d="M 971.5,1030.5 C 971.5,1031.5 971.5,1032.5 971.5,1033.5C 976.167,1033.5 980.833,1033.5 985.5,1033.5C 980.695,1034.49 975.695,1034.82 970.5,1034.5C 970.232,1032.9 970.566,1031.57 971.5,1030.5 Z"/></g>
<g><path style="opacity:1" fill="#b0dccc" d="M 1146.5,1021.5 C 1147.48,1025.63 1147.82,1029.97 1147.5,1034.5C 1136.32,1034.83 1125.32,1034.49 1114.5,1033.5C 1125.17,1033.5 1135.83,1033.5 1146.5,1033.5C 1146.5,1029.5 1146.5,1025.5 1146.5,1021.5 Z"/></g>
<g><path style="opacity:1" fill="#bbe1d3" d="M 1384.5,1031.5 C 1386.22,1032.8 1388.39,1033.47 1391,1033.5C 1393.78,1033.37 1396.28,1032.7 1398.5,1031.5C 1398.5,1032.5 1398.5,1033.5 1398.5,1034.5C 1393.5,1034.5 1388.5,1034.5 1383.5,1034.5C 1383.26,1033.21 1383.6,1032.21 1384.5,1031.5 Z"/></g>
<g><path style="opacity:1" fill="#b8dfd1" d="M 1433.5,1031.5 C 1434.4,1032.21 1434.74,1033.21 1434.5,1034.5C 1429.31,1034.82 1424.31,1034.49 1419.5,1033.5C 1424.62,1034.1 1429.29,1033.44 1433.5,1031.5 Z"/></g>
<g><path style="opacity:1" fill="#40aa85" d="M 637.5,1068.5 C 636.833,1170.17 636.167,1271.83 635.5,1373.5C 635.333,1271.17 635.5,1168.83 636,1066.5C 636.717,1067.04 637.217,1067.71 637.5,1068.5 Z"/></g>
<g><path style="opacity:1" fill="#fbfdfc" d="M 982.5,1079.5 C 989.508,1079.33 996.508,1079.5 1003.5,1080C 1005.22,1080.35 1006.88,1080.85 1008.5,1081.5C 1009.66,1085.46 1009.83,1089.46 1009,1093.5C 1001.58,1092.35 994.08,1092.19 986.5,1093C 984.951,1094.21 983.785,1095.71 983,1097.5C 981.434,1112.79 981.101,1128.13 982,1143.5C 982.688,1152.61 987.521,1155.94 996.5,1153.5C 996.5,1145.5 996.5,1137.5 996.5,1129.5C 994.167,1129.5 991.833,1129.5 989.5,1129.5C 989.5,1125.17 989.5,1120.83 989.5,1116.5C 996.167,1116.5 1002.83,1116.5 1009.5,1116.5C 1009.67,1132.17 1009.5,1147.84 1009,1163.5C 999.325,1166.65 989.491,1167.15 979.5,1165C 976.898,1164.12 974.731,1162.62 973,1160.5C 970.734,1156.03 969.067,1151.37 968,1146.5C 967.333,1130.83 967.333,1115.17 968,1099.5C 968.265,1089.23 973.098,1082.57 982.5,1079.5 Z"/></g>
<g><path style="opacity:1" fill="#f8fcfa" d="M 1108.5,1079.5 C 1115.87,1079.32 1123.2,1079.65 1130.5,1080.5C 1130.5,1084.5 1130.5,1088.5 1130.5,1092.5C 1125.49,1092.33 1120.49,1092.5 1115.5,1093C 1113.74,1094.01 1112.57,1095.51 1112,1097.5C 1111.33,1113.83 1111.33,1130.17 1112,1146.5C 1113.02,1152.02 1116.36,1154.35 1122,1153.5C 1124.87,1153.32 1127.7,1152.98 1130.5,1152.5C 1130.82,1156.55 1130.49,1160.55 1129.5,1164.5C 1120.94,1167.52 1112.6,1167.02 1104.5,1163C 1101.53,1160.9 1099.7,1158.07 1099,1154.5C 1098.23,1150.85 1097.56,1147.19 1097,1143.5C 1096.33,1128.5 1096.33,1113.5 1097,1098.5C 1097.83,1090.15 1101.66,1083.82 1108.5,1079.5 Z"/></g>
<g><path style="opacity:1" fill="#fefffe" d="M 853.5,1080.5 C 864.833,1080.5 876.167,1080.5 887.5,1080.5C 887.5,1084.5 887.5,1088.5 887.5,1092.5C 880.833,1092.5 874.167,1092.5 867.5,1092.5C 867.5,1100.17 867.5,1107.83 867.5,1115.5C 872.975,1116.49 878.642,1116.82 884.5,1116.5C 884.5,1120.5 884.5,1124.5 884.5,1128.5C 878.833,1128.5 873.167,1128.5 867.5,1128.5C 867.5,1136.5 867.5,1144.5 867.5,1152.5C 874.167,1152.5 880.833,1152.5 887.5,1152.5C 887.5,1156.5 887.5,1160.5 887.5,1164.5C 876.167,1164.5 864.833,1164.5 853.5,1164.5C 853.5,1136.5 853.5,1108.5 853.5,1080.5 Z"/></g>
<g><path style="opacity:1" fill="#fbfdfc" d="M 961.5,1164.5 C 956.193,1165.03 951.193,1164.36 946.5,1162.5C 945.833,1156.83 945.167,1151.17 944.5,1145.5C 939.167,1145.5 933.833,1145.5 928.5,1145.5C 927.284,1152.13 926.284,1158.8 925.5,1165.5C 920.833,1165.5 916.167,1165.5 911.5,1165.5C 915.65,1137.08 920.317,1108.75 925.5,1080.5C 932.833,1080.5 940.167,1080.5 947.5,1080.5C 952.599,1108.43 957.266,1136.43 961.5,1164.5 Z"/></g>
<g><path style="opacity:1" fill="#fdfefe" d="M 1063.5,1163.5 C 1059.03,1164.49 1054.36,1164.82 1049.5,1164.5C 1046.88,1155.01 1044.38,1145.34 1042,1135.5C 1039.62,1134.56 1037.12,1134.23 1034.5,1134.5C 1033.51,1144.32 1033.17,1154.32 1033.5,1164.5C 1028.83,1164.5 1024.17,1164.5 1019.5,1164.5C 1019.5,1136.5 1019.5,1108.5 1019.5,1080.5C 1029.84,1080.33 1040.17,1080.5 1050.5,1081C 1057.18,1083.02 1061.01,1087.52 1062,1094.5C 1063.01,1104.95 1062.34,1115.29 1060,1125.5C 1058.04,1127.78 1056.54,1130.28 1055.5,1133C 1058.28,1143.16 1060.94,1153.32 1063.5,1163.5 Z"/></g>
<g><path style="opacity:1" fill="#87c9b2" d="M 1072.5,1080.5 C 1072.5,1108.5 1072.5,1136.5 1072.5,1164.5C 1077.17,1164.5 1081.83,1164.5 1086.5,1164.5C 1081.69,1165.49 1076.69,1165.82 1071.5,1165.5C 1071.17,1137 1071.5,1108.66 1072.5,1080.5 Z"/></g>
<g><path style="opacity:1" fill="#fefffe" d="M 1072.5,1080.5 C 1077.17,1080.5 1081.83,1080.5 1086.5,1080.5C 1086.5,1108.5 1086.5,1136.5 1086.5,1164.5C 1081.83,1164.5 1077.17,1164.5 1072.5,1164.5C 1072.5,1136.5 1072.5,1108.5 1072.5,1080.5 Z"/></g>
<g><path style="opacity:1" fill="#afdbcb" d="M 1152.5,1080.5 C 1147.83,1080.5 1143.17,1080.5 1138.5,1080.5C 1138.5,1101.83 1138.5,1123.17 1138.5,1144.5C 1137.5,1123.01 1137.17,1101.34 1137.5,1079.5C 1142.69,1079.18 1147.69,1079.51 1152.5,1080.5 Z"/></g>
<g><path style="opacity:1" fill="#fefefe" d="M 1152.5,1080.5 C 1152.33,1103.5 1152.5,1126.5 1153,1149.5C 1154.02,1152.68 1156.18,1154.02 1159.5,1153.5C 1163.73,1153.78 1165.89,1151.78 1166,1147.5C 1166.5,1125.17 1166.67,1102.84 1166.5,1080.5C 1171.17,1080.5 1175.83,1080.5 1180.5,1080.5C 1180.5,1101.83 1180.5,1123.17 1180.5,1144.5C 1181.57,1159.93 1174.4,1167.27 1159,1166.5C 1144.12,1166.78 1137.28,1159.45 1138.5,1144.5C 1138.5,1123.17 1138.5,1101.83 1138.5,1080.5C 1143.17,1080.5 1147.83,1080.5 1152.5,1080.5 Z"/></g>
<g><path style="opacity:1" fill="#b0dccc" d="M 1166.5,1080.5 C 1171.31,1079.51 1176.31,1079.18 1181.5,1079.5C 1181.83,1101.34 1181.5,1123.01 1180.5,1144.5C 1180.5,1123.17 1180.5,1101.83 1180.5,1080.5C 1175.83,1080.5 1171.17,1080.5 1166.5,1080.5 Z"/></g>
<g><path style="opacity:1" fill="#b5decf" d="M 1206.5,1151.5 C 1212.5,1151.5 1218.5,1151.5 1224.5,1151.5C 1224.5,1156.17 1224.5,1160.83 1224.5,1165.5C 1213.5,1165.5 1202.5,1165.5 1191.5,1165.5C 1191.5,1136.83 1191.5,1108.17 1191.5,1079.5C 1196.5,1079.5 1201.5,1079.5 1206.5,1079.5C 1206.5,1103.5 1206.5,1127.5 1206.5,1151.5 Z"/></g>
<g><path style="opacity:1" fill="#fefefe" d="M 1206.5,1151.5 C 1211.98,1152.49 1217.64,1152.82 1223.5,1152.5C 1223.5,1156.5 1223.5,1160.5 1223.5,1164.5C 1213.17,1164.5 1202.83,1164.5 1192.5,1164.5C 1192.5,1136.5 1192.5,1108.5 1192.5,1080.5C 1196.83,1080.5 1201.17,1080.5 1205.5,1080.5C 1205.17,1104.34 1205.5,1128.01 1206.5,1151.5 Z"/></g>
<g><path style="opacity:1" fill="#fefefe" d="M 1262.5,1080.5 C 1262.5,1084.83 1262.5,1089.17 1262.5,1093.5C 1258.17,1093.5 1253.83,1093.5 1249.5,1093.5C 1248.5,1116.99 1248.17,1140.66 1248.5,1164.5C 1243.83,1164.5 1239.17,1164.5 1234.5,1164.5C 1234.5,1140.83 1234.5,1117.17 1234.5,1093.5C 1230.37,1092.52 1226.03,1092.18 1221.5,1092.5C 1221.5,1088.5 1221.5,1084.5 1221.5,1080.5C 1235.17,1080.5 1248.83,1080.5 1262.5,1080.5 Z"/></g>
<g><path style="opacity:1" fill="#fdfefe" d="M 1268.5,1080.5 C 1273.17,1080.5 1277.83,1080.5 1282.5,1080.5C 1282.17,1101.67 1282.5,1122.67 1283.5,1143.5C 1282.49,1151.33 1285.83,1154.49 1293.5,1153C 1295.05,1151.79 1296.22,1150.29 1297,1148.5C 1297.5,1125.84 1297.67,1103.17 1297.5,1080.5C 1302.17,1080.5 1306.83,1080.5 1311.5,1080.5C 1311.95,1105.21 1311.45,1129.88 1310,1154.5C 1309.15,1157.7 1307.65,1160.53 1305.5,1163C 1295.46,1167.49 1285.46,1167.49 1275.5,1163C 1272.53,1160.9 1270.7,1158.07 1270,1154.5C 1268.58,1129.86 1268.08,1105.2 1268.5,1080.5 Z"/></g>
<g><path style="opacity:1" fill="#b4decf" d="M 1268.5,1080.5 C 1273.31,1079.51 1278.31,1079.18 1283.5,1079.5C 1283.5,1100.83 1283.5,1122.17 1283.5,1143.5C 1282.5,1122.67 1282.17,1101.67 1282.5,1080.5C 1277.83,1080.5 1273.17,1080.5 1268.5,1080.5 Z"/></g>
<g><path style="opacity:1" fill="#fdfefd" d="M 1366.5,1163.5 C 1361.69,1164.49 1356.69,1164.82 1351.5,1164.5C 1349.19,1154.91 1347.02,1145.24 1345,1135.5C 1342.62,1134.56 1340.12,1134.23 1337.5,1134.5C 1336.51,1144.32 1336.17,1154.32 1336.5,1164.5C 1331.83,1164.5 1327.17,1164.5 1322.5,1164.5C 1322.5,1136.5 1322.5,1108.5 1322.5,1080.5C 1332.84,1080.33 1343.17,1080.5 1353.5,1081C 1361.08,1083.29 1364.91,1088.46 1365,1096.5C 1366.07,1106.31 1365.41,1115.97 1363,1125.5C 1361.27,1127.72 1359.77,1130.06 1358.5,1132.5C 1361.17,1142.85 1363.84,1153.19 1366.5,1163.5 Z"/></g>
<g><path style="opacity:1" fill="#fbfdfc" d="M 1384.5,1080.5 C 1391.83,1080.5 1399.17,1080.5 1406.5,1080.5C 1411.68,1108.75 1416.35,1137.09 1420.5,1165.5C 1415.57,1165.8 1410.74,1165.47 1406,1164.5C 1404.98,1158.18 1404.15,1151.85 1403.5,1145.5C 1398.17,1145.5 1392.83,1145.5 1387.5,1145.5C 1386.66,1152.19 1385.66,1158.86 1384.5,1165.5C 1379.83,1165.5 1375.17,1165.5 1370.5,1165.5C 1375.17,1137.16 1379.83,1108.83 1384.5,1080.5 Z"/></g>
<g><path style="opacity:1" fill="#a6d7c6" d="M 1262.5,1080.5 C 1248.83,1080.5 1235.17,1080.5 1221.5,1080.5C 1221.5,1084.5 1221.5,1088.5 1221.5,1092.5C 1226.03,1092.18 1230.37,1092.52 1234.5,1093.5C 1229.83,1093.5 1225.17,1093.5 1220.5,1093.5C 1220.5,1088.83 1220.5,1084.17 1220.5,1079.5C 1234.68,1079.17 1248.68,1079.5 1262.5,1080.5 Z"/></g>
<g><path style="opacity:1" fill="#57b392" d="M 887.5,1092.5 C 881.355,1093.49 875.022,1093.82 868.5,1093.5C 868.5,1100.83 868.5,1108.17 868.5,1115.5C 868.167,1115.5 867.833,1115.5 867.5,1115.5C 867.5,1107.83 867.5,1100.17 867.5,1092.5C 874.167,1092.5 880.833,1092.5 887.5,1092.5 Z"/></g>
<g><path style="opacity:1" fill="#84c8b0" d="M 1043.5,1093.5 C 1040.5,1093.5 1037.5,1093.5 1034.5,1093.5C 1034.5,1102.83 1034.5,1112.17 1034.5,1121.5C 1037.5,1121.5 1040.5,1121.5 1043.5,1121.5C 1040.38,1122.48 1037.04,1122.81 1033.5,1122.5C 1033.5,1112.5 1033.5,1102.5 1033.5,1092.5C 1037.04,1092.19 1040.38,1092.52 1043.5,1093.5 Z"/></g>
<g><path style="opacity:1" fill="#048d5d" d="M 1043.5,1093.5 C 1045.41,1093.57 1046.58,1094.57 1047,1096.5C 1047.67,1103.5 1047.67,1110.5 1047,1117.5C 1046.58,1119.55 1045.42,1120.88 1043.5,1121.5C 1040.5,1121.5 1037.5,1121.5 1034.5,1121.5C 1034.5,1112.17 1034.5,1102.83 1034.5,1093.5C 1037.5,1093.5 1040.5,1093.5 1043.5,1093.5 Z"/></g>
<g><path style="opacity:1" fill="#88c9b3" d="M 1249.5,1093.5 C 1249.5,1117.5 1249.5,1141.5 1249.5,1165.5C 1244.31,1165.82 1239.31,1165.49 1234.5,1164.5C 1239.17,1164.5 1243.83,1164.5 1248.5,1164.5C 1248.17,1140.66 1248.5,1116.99 1249.5,1093.5 Z"/></g>
<g><path style="opacity:1" fill="#83c7b0" d="M 1346.5,1093.5 C 1343.5,1093.5 1340.5,1093.5 1337.5,1093.5C 1337.5,1102.83 1337.5,1112.17 1337.5,1121.5C 1340.17,1121.5 1342.83,1121.5 1345.5,1121.5C 1342.71,1122.48 1339.71,1122.81 1336.5,1122.5C 1336.5,1112.5 1336.5,1102.5 1336.5,1092.5C 1340.04,1092.19 1343.38,1092.52 1346.5,1093.5 Z"/></g>
<g><path style="opacity:1" fill="#048d5d" d="M 1346.5,1093.5 C 1348.41,1093.57 1349.58,1094.57 1350,1096.5C 1350.67,1103.5 1350.67,1110.5 1350,1117.5C 1349.25,1119.75 1347.75,1121.08 1345.5,1121.5C 1342.83,1121.5 1340.17,1121.5 1337.5,1121.5C 1337.5,1112.17 1337.5,1102.83 1337.5,1093.5C 1340.5,1093.5 1343.5,1093.5 1346.5,1093.5 Z"/></g>
<g><path style="opacity:1" fill="#1f9467" d="M 935.5,1096.5 C 936.927,1098.15 937.76,1100.15 938,1102.5C 939.455,1112.85 940.955,1123.19 942.5,1133.5C 938.5,1133.5 934.5,1133.5 930.5,1133.5C 932.26,1121.18 933.927,1108.85 935.5,1096.5 Z"/></g>
<g><path style="opacity:1" fill="#29976b" d="M 1394.5,1095.5 C 1395.69,1095.97 1396.36,1096.97 1396.5,1098.5C 1398.26,1110.16 1399.93,1121.83 1401.5,1133.5C 1397.5,1133.5 1393.5,1133.5 1389.5,1133.5C 1391.17,1120.83 1392.83,1108.16 1394.5,1095.5 Z"/></g>
<g><path style="opacity:1" fill="#acdac9" d="M 867.5,1115.5 C 867.833,1115.5 868.167,1115.5 868.5,1115.5C 874.167,1115.5 879.833,1115.5 885.5,1115.5C 885.818,1120.03 885.485,1124.37 884.5,1128.5C 884.5,1124.5 884.5,1120.5 884.5,1116.5C 878.642,1116.82 872.975,1116.49 867.5,1115.5 Z"/></g>
<g><path style="opacity:1" fill="#42aa86" d="M 884.5,1128.5 C 879.36,1129.49 874.026,1129.82 868.5,1129.5C 868.5,1136.83 868.5,1144.17 868.5,1151.5C 875.022,1151.18 881.355,1151.51 887.5,1152.5C 880.833,1152.5 874.167,1152.5 867.5,1152.5C 867.5,1144.5 867.5,1136.5 867.5,1128.5C 873.167,1128.5 878.833,1128.5 884.5,1128.5 Z"/></g>
<g><path style="opacity:1" fill="#8eccb6" d="M 1034.5,1134.5 C 1034.5,1144.83 1034.5,1155.17 1034.5,1165.5C 1029.31,1165.82 1024.31,1165.49 1019.5,1164.5C 1024.17,1164.5 1028.83,1164.5 1033.5,1164.5C 1033.17,1154.32 1033.51,1144.32 1034.5,1134.5 Z"/></g>
<g><path style="opacity:1" fill="#8eccb6" d="M 1337.5,1134.5 C 1337.5,1144.83 1337.5,1155.17 1337.5,1165.5C 1332.31,1165.82 1327.31,1165.49 1322.5,1164.5C 1327.17,1164.5 1331.83,1164.5 1336.5,1164.5C 1336.17,1154.32 1336.51,1144.32 1337.5,1134.5 Z"/></g>
<g><path style="opacity:1" fill="#a5d6c5" d="M 853.5,1080.5 C 853.5,1108.5 853.5,1136.5 853.5,1164.5C 864.833,1164.5 876.167,1164.5 887.5,1164.5C 876.012,1165.49 864.345,1165.83 852.5,1165.5C 852.169,1137 852.502,1108.66 853.5,1080.5 Z"/></g>
<g><path style="opacity:1" fill="#b8dfd1" d="M 946.5,1162.5 C 951.193,1164.36 956.193,1165.03 961.5,1164.5C 956.695,1165.49 951.695,1165.82 946.5,1165.5C 946.5,1164.5 946.5,1163.5 946.5,1162.5 Z"/></g>
<g><path style="opacity:1" fill="#b9e0d2" d="M 1063.5,1163.5 C 1064.04,1163.56 1064.38,1163.89 1064.5,1164.5C 1059.35,1165.81 1054.35,1165.81 1049.5,1164.5C 1054.36,1164.82 1059.03,1164.49 1063.5,1163.5 Z"/></g>
<g><path style="opacity:1" fill="#b4decf" d="M 1366.5,1163.5 C 1367.04,1163.56 1367.38,1163.89 1367.5,1164.5C 1362.01,1165.81 1356.68,1165.81 1351.5,1164.5C 1356.69,1164.82 1361.69,1164.49 1366.5,1163.5 Z"/></g>
<g><path style="opacity:1" fill="#fcfefd" d="M 1221.5,1440.5 C 1325.44,1433.95 1383.94,1482.28 1397,1585.5C 1401.65,1625.44 1397.65,1664.44 1385,1702.5C 1364.71,1756.59 1325.87,1787.75 1268.5,1796C 1165.55,1804.38 1106.05,1757.55 1090,1655.5C 1084.54,1614.96 1088.2,1575.29 1101,1536.5C 1122.36,1480.75 1162.52,1448.75 1221.5,1440.5 Z"/></g>
<g><path style="opacity:1" fill="#fcfefd" d="M 1453.5,1782.5 C 1453.17,1774.32 1453.51,1766.32 1454.5,1758.5C 1494.55,1774.04 1535.88,1778.88 1578.5,1773C 1628.27,1762.57 1648.44,1732.4 1639,1682.5C 1633.08,1668.57 1623.58,1657.74 1610.5,1650C 1604.5,1647 1598.5,1644 1592.5,1641C 1570.32,1632.27 1547.99,1623.94 1525.5,1616C 1505.21,1608.61 1487.71,1597.11 1473,1581.5C 1454.72,1553.12 1451.72,1523.12 1464,1491.5C 1474.72,1472.45 1490.22,1458.62 1510.5,1450C 1519.89,1446.31 1529.56,1443.65 1539.5,1442C 1580.21,1437.1 1619.54,1442.27 1657.5,1457.5C 1655.65,1463.89 1653.48,1470.23 1651,1476.5C 1650.63,1477.91 1649.8,1478.91 1648.5,1479.5C 1607.97,1461.58 1566.3,1458.08 1523.5,1469C 1490.01,1482.8 1476.51,1507.64 1483,1543.5C 1486.37,1558.87 1494.54,1571.04 1507.5,1580C 1517.61,1586.39 1528.28,1591.72 1539.5,1596C 1566.39,1604.95 1592.73,1615.28 1618.5,1627C 1660.44,1649.41 1675.27,1683.91 1663,1730.5C 1653.23,1758.94 1634.06,1778.11 1605.5,1788C 1575.48,1797.43 1544.81,1800.1 1513.5,1796C 1492.82,1794.17 1472.82,1789.67 1453.5,1782.5 Z"/></g>
<g><path style="opacity:1" fill="#fdfefd" d="M 445.5,1791.5 C 437.316,1791.83 429.316,1791.49 421.5,1790.5C 466.036,1675.75 510.87,1561.09 556,1446.5C 563.775,1445.19 571.608,1445.19 579.5,1446.5C 624.099,1561.63 668.099,1676.97 711.5,1792.5C 702.915,1792.82 694.415,1792.48 686,1791.5C 670.598,1751.13 655.098,1710.79 639.5,1670.5C 590.833,1669.17 542.167,1669.17 493.5,1670.5C 477.492,1710.86 461.492,1751.2 445.5,1791.5 Z"/></g>
<g><path style="opacity:1" fill="#fefefe" d="M 759.5,1445.5 C 768.085,1445.18 776.585,1445.52 785,1446.5C 852.585,1548.01 920.419,1649.34 988.5,1750.5C 988.833,1749.67 989.167,1748.83 989.5,1748C 988.709,1733.85 988.209,1719.69 988,1705.5C 987.5,1618.83 987.333,1532.17 987.5,1445.5C 995.167,1445.5 1002.83,1445.5 1010.5,1445.5C 1010.5,1560.83 1010.5,1676.17 1010.5,1791.5C 1002.5,1791.5 994.5,1791.5 986.5,1791.5C 917.775,1689.74 849.275,1587.74 781,1485.5C 780.833,1488.17 780.667,1490.83 780.5,1493.5C 781.356,1508.49 781.689,1523.49 781.5,1538.5C 781.5,1622.83 781.5,1707.17 781.5,1791.5C 774.167,1791.5 766.833,1791.5 759.5,1791.5C 759.5,1676.17 759.5,1560.83 759.5,1445.5 Z"/></g>
<g><path style="opacity:1" fill="#bee2d5" d="M 1010.5,1445.5 C 1011.5,1561 1011.83,1676.67 1011.5,1792.5C 1002.98,1792.83 994.65,1792.49 986.5,1791.5C 994.5,1791.5 1002.5,1791.5 1010.5,1791.5C 1010.5,1676.17 1010.5,1560.83 1010.5,1445.5 Z"/></g>
<g><path style="opacity:1" fill="#018d5c" d="M 1229.5,1462.5 C 1304.82,1457.22 1350.99,1491.22 1368,1564.5C 1373.99,1599.83 1373.99,1635.16 1368,1670.5C 1351.13,1746.66 1303.63,1781.5 1225.5,1775C 1181.83,1769.97 1150.33,1747.81 1131,1708.5C 1112.72,1661.73 1108.72,1613.73 1119,1564.5C 1126.49,1527.31 1145.99,1498.48 1177.5,1478C 1193.86,1469.08 1211.19,1463.92 1229.5,1462.5 Z"/></g>
<g><path style="opacity:1" fill="#048d5d" d="M 566.5,1473.5 C 568.117,1475.12 569.284,1477.12 570,1479.5C 590.172,1535.54 610.339,1591.54 630.5,1647.5C 587.833,1647.5 545.167,1647.5 502.5,1647.5C 518.425,1604.31 534.925,1561.31 552,1518.5C 557.138,1503.59 561.972,1488.59 566.5,1473.5 Z"/></g>
<g><path style="opacity:1" fill="#bce2d4" d="M 759.5,1445.5 C 759.5,1560.83 759.5,1676.17 759.5,1791.5C 766.833,1791.5 774.167,1791.5 781.5,1791.5C 781.5,1707.17 781.5,1622.83 781.5,1538.5C 782.499,1623 782.833,1707.67 782.5,1792.5C 774.5,1792.5 766.5,1792.5 758.5,1792.5C 758.167,1676.67 758.5,1561 759.5,1445.5 Z"/></g>
<g><path style="opacity:1" fill="#b9e0d2" d="M 1454.5,1758.5 C 1453.51,1766.32 1453.17,1774.32 1453.5,1782.5C 1452.18,1774.32 1452.18,1765.99 1453.5,1757.5C 1454.11,1757.62 1454.44,1757.96 1454.5,1758.5 Z"/></g>
<g><path style="opacity:1" fill="#bfe3d6" d="M 421.5,1790.5 C 429.316,1791.49 437.316,1791.83 445.5,1791.5C 437.324,1792.82 428.991,1792.82 420.5,1791.5C 420.624,1790.89 420.957,1790.56 421.5,1790.5 Z"/></g>
</svg>
